<?xml version="1.0" standalone="no"?>
<svg xmlns:xlink="http://www.w3.org/1999/xlink" id="wave" style="transform:rotate(180deg); transition: 0.3s" viewBox="0 0 1440 490" version="1.1" xmlns="http://www.w3.org/2000/svg"><defs><linearGradient id="sw-gradient-0" x1="0" x2="0" y1="1" y2="0"><stop stop-color="rgba(0, 202, 241, 1)" offset="0%"/><stop stop-color="rgba(7.151, 7.151, 7.151, 1)" offset="100%"/></linearGradient></defs><path style="transform:translate(0, 0px); opacity:1" fill="url(#sw-gradient-0)" d="M0,196L24,179.7C48,163,96,131,144,163.3C192,196,240,294,288,294C336,294,384,196,432,187.8C480,180,528,261,576,277.7C624,294,672,245,720,196C768,147,816,98,864,114.3C912,131,960,212,1008,245C1056,278,1104,261,1152,245C1200,229,1248,212,1296,187.8C1344,163,1392,131,1440,163.3C1488,196,1536,294,1584,318.5C1632,343,1680,294,1728,269.5C1776,245,1824,245,1872,220.5C1920,196,1968,147,2016,138.8C2064,131,2112,163,2160,220.5C2208,278,2256,359,2304,343C2352,327,2400,212,2448,171.5C2496,131,2544,163,2592,187.8C2640,212,2688,229,2736,196C2784,163,2832,82,2880,49C2928,16,2976,33,3024,89.8C3072,147,3120,245,3168,236.8C3216,229,3264,114,3312,130.7C3360,147,3408,294,3432,367.5L3456,441L3456,490L3432,490C3408,490,3360,490,3312,490C3264,490,3216,490,3168,490C3120,490,3072,490,3024,490C2976,490,2928,490,2880,490C2832,490,2784,490,2736,490C2688,490,2640,490,2592,490C2544,490,2496,490,2448,490C2400,490,2352,490,2304,490C2256,490,2208,490,2160,490C2112,490,2064,490,2016,490C1968,490,1920,490,1872,490C1824,490,1776,490,1728,490C1680,490,1632,490,1584,490C1536,490,1488,490,1440,490C1392,490,1344,490,1296,490C1248,490,1200,490,1152,490C1104,490,1056,490,1008,490C960,490,912,490,864,490C816,490,768,490,720,490C672,490,624,490,576,490C528,490,480,490,432,490C384,490,336,490,288,490C240,490,192,490,144,490C96,490,48,490,24,490L0,490Z"/></svg>